<?xml version="1.0" encoding="UTF-8" standalone="no"?>
<svg
   xmlns:dc="http://purl.org/dc/elements/1.1/"
   xmlns:cc="http://creativecommons.org/ns#"
   xmlns:rdf="http://www.w3.org/1999/02/22-rdf-syntax-ns#"
   xmlns:svg="http://www.w3.org/2000/svg"
   xmlns="http://www.w3.org/2000/svg"
   id="svg8"
   version="1.1"
   viewBox="0 0 122.98161 114.781"
   height="114.78101mm"
   width="122.98161mm">
  <defs
     id="defs2" />
  <metadata
     id="metadata5">
    <rdf:RDF>
      <cc:Work
         rdf:about="">
        <dc:format>image/svg+xml</dc:format>
        <dc:type
           rdf:resource="http://purl.org/dc/dcmitype/StillImage" />
        <dc:title></dc:title>
      </cc:Work>
    </rdf:RDF>
  </metadata>
  <g
     transform="translate(-29.789869,-34.626114)"
     id="layer1">
    <path
       style="fill:#000000;stroke-width:0.04125438"
       d="m 50.762216,149.3848 c -0.17322,-0.008 -0.3056,-0.0301 -0.294178,-0.0493 0.01142,-0.0192 -0.0922,-0.0482 -0.230264,-0.0645 -0.397674,-0.0468 -1.105347,-0.25266 -1.57997,-0.4597 -0.835626,-0.36453 -1.506785,-0.84842 -2.174091,-1.56748 -0.905489,-0.97572 -1.443053,-2.06705 -1.726681,-3.50543 -0.06637,-0.3366 -0.07177,-1.76789 -0.09236,-24.51885 l -0.02187,-24.161379 -6.886955,-0.01063 -6.886955,-0.01063 -0.08651,-0.126308 c -0.146056,-0.213176 -0.469323,-0.965273 -0.605056,-1.407709 -0.141257,-0.460427 -0.284618,-1.133455 -0.285593,-1.34072 -4.02e-4,-0.08633 -0.01224,-0.113005 -0.03422,-0.07699 -0.01988,0.03259 -0.0434,-0.113452 -0.05764,-0.357475 -0.02868,-0.492288 0.0086,-1.262595 0.05745,-1.18278 0.02179,0.03576 0.03422,0.003 0.03499,-0.0919 6.89e-4,-0.08097 0.03757,-0.326987 0.08202,-0.546729 0.280527,-1.388059 0.968386,-2.711373 1.946312,-3.74437 0.221556,-0.234038 51.437788,-47.485701 53.310274,-49.183609 0.630283,-0.571525 1.202828,-0.960667 2.009164,-1.36558 0.849583,-0.426627 2.052803,-0.786803 2.901229,-0.868469 0.162852,-0.01568 0.275251,-0.04188 0.249785,-0.05825 -0.0672,-0.04317 0.812263,-0.07632 1.359265,-0.05123 0.257691,0.01182 0.447682,0.03487 0.422216,0.05123 -0.02543,0.01636 0.08689,0.04257 0.249775,0.05825 0.857182,0.08251 2.038473,0.43628 2.901229,0.868856 0.872754,0.437588 1.385936,0.796385 2.190284,1.531368 3.789484,3.462691 52.917564,48.79034 53.148244,49.036836 0.78842,0.842472 1.39703,1.882502 1.72399,2.946137 0.14136,0.459792 0.28488,1.132988 0.28586,1.34071 4.1e-4,0.08703 0.0121,0.113165 0.0344,0.0766 0.0464,-0.076 0.0827,0.674676 0.0561,1.158311 -0.0118,0.213365 -0.0371,0.377851 -0.0563,0.365513 -0.0192,-0.01232 -0.0349,0.03338 -0.0349,0.101591 0,0.198125 -0.14515,0.876934 -0.28498,1.332682 -0.13573,0.442446 -0.459,1.194543 -0.60506,1.407719 l -0.0865,0.126318 -7.12976,0.01063 -7.12976,0.01063 -0.0226,24.056227 c -0.0246,26.2388 -0.005,24.13767 -0.23798,25.07935 -0.25533,1.03057 -0.84289,2.11716 -1.58218,2.92599 -0.54554,0.59686 -1.12278,1.03067 -1.88032,1.41309 -0.53142,0.26827 -0.9091,0.40236 -1.558,0.55313 l -0.42491,0.0988 H 120.0138 108.2984 l -0.41066,-0.0946 c -0.8572,-0.19736 -1.71542,-0.57847 -2.42163,-1.0754 -0.51139,-0.35984 -1.3434,-1.23358 -1.68929,-1.774 -0.48651,-0.76014 -0.81806,-1.59082 -1.01053,-2.53181 l -0.0929,-0.45419 -0.0205,-24.0983 c -0.0113,-13.25406 -0.0249,-24.103045 -0.0303,-24.108867 -0.006,-0.006 -5.22265,-0.006 -11.593781,0 l -11.583885,0.01063 -0.02189,24.140347 c -0.02055,22.67982 -0.0261,24.16198 -0.09206,24.49783 -0.101051,0.51527 -0.256437,1.06146 -0.418726,1.47198 -0.692657,1.75199 -2.148739,3.1744 -3.892576,3.80255 -0.437682,0.15765 -1.115981,0.3185 -1.347775,0.31961 -0.08728,4.2e-4 -0.116519,0.013 -0.0824,0.0355 0.03088,0.0204 -0.137234,0.0462 -0.404674,0.0623 -0.455023,0.0272 -21.821457,0.024 -22.422727,-0.004 z"
       id="path947" />
  </g>
</svg>
