<?xml version="1.0" encoding="UTF-8" standalone="no"?>
<svg
   xmlns:dc="http://purl.org/dc/elements/1.1/"
   xmlns:cc="http://creativecommons.org/ns#"
   xmlns:rdf="http://www.w3.org/1999/02/22-rdf-syntax-ns#"
   xmlns:svg="http://www.w3.org/2000/svg"
   xmlns="http://www.w3.org/2000/svg"
   id="svg8"
   version="1.1"
   viewBox="0 0 114.50502 118.27055"
   height="118.27055mm"
   width="114.50502mm">
  <defs
     id="defs2" />
  <metadata
     id="metadata5">
    <rdf:RDF>
      <cc:Work
         rdf:about="">
        <dc:format>image/svg+xml</dc:format>
        <dc:type
           rdf:resource="http://purl.org/dc/dcmitype/StillImage" />
        <dc:title></dc:title>
      </cc:Work>
    </rdf:RDF>
  </metadata>
  <g
     transform="translate(-32.884564,-33.080819)"
     id="layer1">
    <path
       style="fill:#000000;stroke-width:0.04159577"
       d="m 51.383785,150.72852 c -0.372114,-0.0141 -0.621206,-0.0372 -0.55355,-0.051 0.0831,-0.0171 0.03516,-0.0274 -0.147817,-0.0317 -0.765758,-0.0178 -2.40959,-0.19863 -3.522869,-0.38738 -1.66858,-0.28289 -2.664998,-0.523 -6.621234,-1.59554 -3.91167,-1.06047 -4.613375,-1.27383 -4.821254,-1.46597 -0.03565,-0.033 -0.0772,-0.0473 -0.09231,-0.0317 -0.01511,0.0155 -0.02741,-0.0176 -0.02741,-0.0738 1e-5,-0.0935 0.01791,-0.10291 0.215269,-0.11314 1.165389,-0.0604 1.903435,-0.31737 2.939662,-1.02346 1.888819,-1.28705 4.610005,-4.04086 6.357942,-6.43414 1.793326,-2.45544 3.155153,-5.1259 4.777106,-9.36761 1.559605,-4.07869 1.874881,-4.85384 2.479921,-6.09738 1.155877,-2.37571 2.708391,-4.83462 4.249427,-6.73034 0.55416,-0.68171 1.577805,-1.76428 2.147733,-2.27138 1.741244,-1.54929 3.998059,-2.8084 6.246119,-3.48484 1.476664,-0.44434 2.407072,-0.4849 3.38746,-0.14772 0.901463,0.31002 1.697024,0.8895 2.948452,2.14761 1.654023,1.66284 4.114552,4.82444 5.393469,6.93023 0.647367,1.06591 0.913002,1.67652 1.031006,2.36991 0.193903,1.13937 -0.1006,3.76211 -0.697055,6.20791 -1.035124,4.24456 -3.249388,9.15882 -5.589763,12.40574 -3.113743,4.31986 -7.190113,7.20198 -11.846378,8.37579 -1.561183,0.39356 -3.505541,0.68818 -5.05945,0.76662 -0.352896,0.0178 -0.54951,0.0419 -0.488276,0.06 0.05811,0.0171 -0.09434,0.032 -0.352267,0.0344 -0.250119,0.002 -0.729862,0.0111 -1.066098,0.0195 -0.336226,0.008 -0.915773,0.004 -1.287877,-0.0106 z m 30.31901,-33.1887 c -0.330241,-0.14798 -0.51779,-0.4073 -1.269028,-1.7546 -0.583334,-1.04619 -1.281609,-2.13649 -1.769886,-2.76358 -0.467645,-0.60056 -1.258895,-1.43692 -2.308877,-2.44049 -2.408458,-2.302 -3.034273,-3.17379 -3.034273,-4.22683 0,-0.39813 0.08466,-0.7234 0.307566,-1.1815 0.243048,-0.49953 0.545975,-0.91302 1.452962,-1.98323 1.00008,-1.18008 1.378886,-1.70697 2.715075,-3.776585 1.170281,-1.812639 1.770264,-2.680763 2.551441,-3.691712 2.266037,-2.932556 5.941197,-6.846109 12.900731,-13.73756 C 106.7119,68.652066 128.92308,47.970745 138.88557,39.49004 c 1.37277,-1.168588 3.43686,-2.828872 4.41734,-3.553162 1.07474,-0.793914 2.34487,-1.590768 2.53557,-1.590768 0.035,0 0.0534,-0.01685 0.0411,-0.03738 -0.0124,-0.02054 0.027,-0.04715 0.0874,-0.05901 0.11598,-0.02283 0.25171,0.01146 0.25581,0.0647 9.7e-4,0.01744 0.0142,0.02691 0.0285,0.02113 0.0507,-0.02054 0.0922,0.176527 0.0687,0.325892 -0.0131,0.08333 -0.0336,0.141362 -0.0457,0.129081 -0.0119,-0.01226 -0.0555,0.07635 -0.0968,0.196981 -0.31206,0.911891 -3.76638,5.959994 -14.10588,20.614149 -14.63635,20.744068 -28.28985,39.781332 -33.570142,46.807297 -4.660702,6.20154 -6.514216,8.30313 -9.476475,10.74485 -2.216376,1.82692 -5.307535,3.93186 -6.336875,4.31515 -0.387959,0.14446 -0.761293,0.17131 -0.985462,0.0709 z"
       id="path873" />
  </g>
</svg>
