<?xml version="1.0" encoding="UTF-8" standalone="no"?>
<svg
   xmlns:dc="http://purl.org/dc/elements/1.1/"
   xmlns:cc="http://creativecommons.org/ns#"
   xmlns:rdf="http://www.w3.org/1999/02/22-rdf-syntax-ns#"
   xmlns:svg="http://www.w3.org/2000/svg"
   xmlns="http://www.w3.org/2000/svg"
   id="svg8"
   version="1.1"
   viewBox="0 0 114.50502 118.27055"
   height="118.27055mm"
   width="114.50502mm">
  <defs
     id="defs2" />
  <metadata
     id="metadata5">
    <rdf:RDF>
      <cc:Work
         rdf:about="">
        <dc:format>image/svg+xml</dc:format>
        <dc:type
           rdf:resource="http://purl.org/dc/dcmitype/StillImage" />
        <dc:title></dc:title>
      </cc:Work>
    </rdf:RDF>
  </metadata>
  <g
     transform="translate(-32.884564,-33.080819)"
     id="layer1">
    <path
       style="fill:#000000;stroke-width:0.04233333"
       d="m 55.523911,150.86006 c -0.30074,-0.009 -0.42391,-0.0268 -0.381,-0.0539 0.0458,-0.029 0.0141,-0.0403 -0.11433,-0.0407 -0.0978,-4.2e-4 -0.40257,-0.0299 -0.67734,-0.0657 -4.66654,-0.60751 -8.77198,-3.36641 -11.08484,-7.44913 -0.93956,-1.65852 -1.56877,-3.54685 -1.81687,-5.45258 -0.0358,-0.27477 -0.0653,-0.57957 -0.0657,-0.67733 -4e-4,-0.11014 -0.014,-0.15676 -0.0356,-0.12257 -0.02,0.0316 -0.0469,-0.20409 -0.0627,-0.55034 -0.0362,-0.79144 -0.0362,-87.329913 0,-88.121351 0.0158,-0.346248 0.0427,-0.581885 0.0627,-0.550333 0.0217,0.03419 0.0352,-0.01243 0.0356,-0.122571 10e-4,-0.290649 0.1215,-1.13382 0.25686,-1.798173 0.30591,-1.501452 0.8947,-3.065843 1.64677,-4.375388 2.33898,-4.072755 6.41363,-6.800104 11.06377,-7.405485 0.27477,-0.03577 0.57957,-0.06533 0.67734,-0.06569 0.11006,-4.02e-4 0.15674,-0.01397 0.1226,-0.03563 -0.0314,-0.0199 0.22239,-0.04699 0.58881,-0.06285 0.35418,-0.01533 18.98608,-0.02787 41.404231,-0.02787 h 40.760268 v 46.884167 c 0,31.227894 -0.0141,46.884164 -0.0423,46.884164 -0.0233,0 -0.0423,-0.0192 -0.0423,-0.0427 0,-0.0287 -13.8095,-0.0389 -42.068748,-0.0312 -39.988721,0.011 -42.090731,0.0152 -42.513261,0.0863 -2.17247,0.3655 -3.89951,1.24238 -5.35003,2.71641 -1.78311,1.81202 -2.73434,4.2786 -2.63725,6.83848 0.0537,1.41561 0.35316,2.60036 0.96841,3.83117 0.89231,1.78507 2.3098,3.21573 4.07671,4.11457 0.99051,0.50388 1.82117,0.76514 3.02683,0.952 0.29588,0.0459 7.84415,0.0558 42.470921,0.0558 h 42.111078 v 2.36009 2.36008 l -40.968078,-0.009 C 74.404011,150.8778 55.768391,150.8677 55.523961,150.86 Z M 117.61143,71.216939 c 1.12571,-0.15657 2.2029,-0.81223 2.86976,-1.74676 0.24615,-0.34493 0.53985,-0.9646 0.66527,-1.40359 l 0.0968,-0.33867 0.0132,-5.58435 c 0.0146,-6.185878 0.0231,-5.966927 -0.25877,-6.717218 -0.57249,-1.524145 -1.94891,-2.578265 -3.58591,-2.746254 -0.58259,-0.05979 -52.173549,-0.06017 -52.743909,-3.81e-4 -1.01334,0.106202 -1.84261,0.488943 -2.55511,1.179281 -0.55362,0.5364 -0.92099,1.137729 -1.15943,1.897838 l -0.11662,0.371751 v 5.820833 5.82083 l 0.11865,0.381 c 0.4529,1.45433 1.46373,2.48311 2.86653,2.91746 0.19753,0.0612 0.47345,0.12752 0.61315,0.14746 0.39337,0.0562 52.772829,0.0569 53.176439,7.7e-4 z"
       id="path910" />
  </g>
</svg>
