<?xml version="1.0" encoding="UTF-8" standalone="no"?>
<!-- Created with Inkscape (http://www.inkscape.org/) -->

<svg
   xmlns:dc="http://purl.org/dc/elements/1.1/"
   xmlns:cc="http://creativecommons.org/ns#"
   xmlns:rdf="http://www.w3.org/1999/02/22-rdf-syntax-ns#"
   xmlns:svg="http://www.w3.org/2000/svg"
   xmlns="http://www.w3.org/2000/svg"
   xmlns:sodipodi="http://sodipodi.sourceforge.net/DTD/sodipodi-0.dtd"
   xmlns:inkscape="http://www.inkscape.org/namespaces/inkscape"
   width="210mm"
   height="297mm"
   viewBox="0 0 210 297"
   version="1.1"
   id="svg8"
   inkscape:version="0.92.4 (5da689c313, 2019-01-14)"
   sodipodi:docname="logo-jsensei.svg">
  <defs
     id="defs2">
    <inkscape:path-effect
       effect="bspline"
       id="path-effect1128"
       is_visible="true"
       weight="33.333333"
       steps="2"
       helper_size="0"
       apply_no_weight="true"
       apply_with_weight="true"
       only_selected="false" />
    <inkscape:path-effect
       effect="bspline"
       id="path-effect1124"
       is_visible="true"
       weight="33.333333"
       steps="2"
       helper_size="0"
       apply_no_weight="true"
       apply_with_weight="true"
       only_selected="false" />
    <inkscape:path-effect
       effect="powerstroke"
       id="path-effect1091"
       is_visible="true"
       offset_points="3,0.13229166"
       sort_points="true"
       interpolator_type="CubicBezierJohan"
       interpolator_beta="0.2"
       start_linecap_type="zerowidth"
       linejoin_type="extrp_arc"
       miter_limit="4"
       end_linecap_type="zerowidth" />
    <inkscape:path-effect
       effect="spiro"
       id="path-effect1089"
       is_visible="true" />
    <inkscape:path-effect
       effect="powerstroke"
       id="path-effect1085"
       is_visible="true"
       offset_points="1,0.13229166"
       sort_points="true"
       interpolator_type="CubicBezierJohan"
       interpolator_beta="0.2"
       start_linecap_type="zerowidth"
       linejoin_type="extrp_arc"
       miter_limit="4"
       end_linecap_type="zerowidth" />
    <inkscape:path-effect
       effect="spiro"
       id="path-effect1027"
       is_visible="true" />
    <inkscape:path-effect
       effect="spiro"
       id="path-effect1023"
       is_visible="true" />
    <inkscape:path-effect
       effect="skeletal"
       id="path-effect1019"
       is_visible="true"
       pattern="M 0,5 C 0,2.24 2.24,0 5,0 7.76,0 10,2.24 10,5 10,7.76 7.76,10 5,10 2.24,10 0,7.76 0,5 Z"
       copytype="single_stretched"
       prop_scale="0.26458333"
       scale_y_rel="false"
       spacing="0"
       normal_offset="0"
       tang_offset="0"
       prop_units="false"
       vertical_pattern="false"
       fuse_tolerance="0" />
  </defs>
  <sodipodi:namedview
     id="base"
     pagecolor="#ffffff"
     bordercolor="#666666"
     borderopacity="1.0"
     inkscape:pageopacity="0.0"
     inkscape:pageshadow="2"
     inkscape:zoom="0.125"
     inkscape:cx="1114.4616"
     inkscape:cy="2334.6504"
     inkscape:document-units="mm"
     inkscape:current-layer="g886"
     showgrid="false"
     inkscape:snap-global="false"
     showguides="true"
     inkscape:guide-bbox="true"
     inkscape:window-width="1600"
     inkscape:window-height="847"
     inkscape:window-x="-8"
     inkscape:window-y="22"
     inkscape:window-maximized="1" />
  <metadata
     id="metadata5">
    <rdf:RDF>
      <cc:Work
         rdf:about="">
        <dc:format>image/svg+xml</dc:format>
        <dc:type
           rdf:resource="http://purl.org/dc/dcmitype/StillImage" />
        <dc:title />
      </cc:Work>
    </rdf:RDF>
  </metadata>
  <g
     inkscape:label="Layer 1"
     inkscape:groupmode="layer"
     id="layer1">
    <g
       aria-label="S"
       style="font-style:normal;font-weight:normal;font-size:10.58333302px;line-height:1.25;font-family:sans-serif;letter-spacing:0px;word-spacing:0px;fill:#b3b3b3;fill-opacity:1;stroke:none;stroke-width:0.26458332"
       id="text819-8"
       transform="matrix(11.811028,0,0,10.828485,709.2667,-1076.9638)" />
    <g
       id="g886"
       transform="translate(-103.71667,-317.5)"
       inkscape:export-filename="C:\Users\Alec\Desktop\g886.png"
       inkscape:export-xdpi="600"
       inkscape:export-ydpi="600">
      <circle
         r="86.809143"
         cy="130.84322"
         cx="108.53347"
         id="path847"
         style="opacity:1;fill:#ffffff;fill-opacity:1;stroke:#d40000;stroke-width:12.88899994;stroke-miterlimit:4;stroke-dasharray:none;stroke-opacity:0.99447512" />
      <path
         sodipodi:nodetypes="ccccssccccccccccscsccscccccc"
         inkscape:connector-curvature="0"
         id="path815-9"
         d="m 124.52396,66.321318 c -7.02243,-0.44746 -6.5695,-0.518458 -12.99663,0.327629 -8.35033,1.126551 -7.66767,2.042702 -12.63643,4.600755 -3.55902,1.830445 -6.46707,4.178495 -8.72401,7.043496 -2.25695,2.865073 -3.385331,6.327124 -3.385331,10.385931 0,3.820072 0.867871,7.122474 2.603981,9.90792 1.73611,2.785451 4.25338,5.332451 7.55199,7.640361 3.38541,2.30798 7.46526,4.57588 12.23957,6.80424 4.86111,2.14873 10.46009,4.49627 16.7969,7.04298 6.51042,3.10381 12.63044,6.36698 18.35961,9.78907 5.81597,3.42216 10.89392,7.20255 15.23421,11.34091 4.17853,3.90608 7.50562,8.23775 9.98285,12.99455 3.12058,-7.75839 4.73292,-16.04072 4.75062,-24.40316 C 174.26259,99.715174 153.6868,73.69601 124.52396,66.321318 Z M 112.8084,195.40285 c 8.03396,-0.80151 14.32991,-2.62602 18.89497,-5.49269 6.42362,-3.97925 9.63559,-9.74909 9.63559,-17.30954 0,-4.0588 -1.08547,-7.56067 -3.25562,-10.5053 -2.08333,-3.02425 -5.03479,-5.76961 -8.85424,-8.23671 -3.81944,-2.46708 -8.33296,-4.81513 -13.54129,-7.04349 -5.12153,-2.30799 -10.63368,-4.69527 -16.53646,-7.16236 -6.33681,-3.1038 -12.239731,-6.24759 -17.708477,-9.43095 -5.468753,-3.18335 -10.243299,-6.68471 -14.323158,-10.50478 -3.993065,-3.89962 -7.161096,-8.2768 -9.504847,-13.1315 -1.940266,-4.99585 -3.049079,-9.452147 -3.313461,-14.01155 -7.523359,10.95509 -11.533823,23.93237 -11.535762,37.22202 1.61e-4,36.32256 29.445524,65.76769 65.768075,65.76756 1.42478,-0.004 2.85318,-0.064 4.27468,-0.16071 z"
         style="opacity:1;fill:#d40000;fill-opacity:1;stroke:none;stroke-width:22.06500053;stroke-miterlimit:4;stroke-dasharray:none;stroke-opacity:0.38121547" />
      <circle
         r="13.844562"
         cy="173.87363"
         cx="116.01701"
         id="path849"
         style="opacity:1;fill:#ffffff;fill-opacity:1;stroke:#d40000;stroke-width:12.88899994;stroke-miterlimit:4;stroke-dasharray:none;stroke-opacity:0.99447512" />
      <circle
         r="13.844562"
         cy="87.714584"
         cx="110.59583"
         id="path849-3"
         style="opacity:1;fill:#ffffff;fill-opacity:1;stroke:#d40000;stroke-width:12.88900089;stroke-miterlimit:4;stroke-dasharray:none;stroke-opacity:0.99447512" />
      <text
         id="text868"
         y="177.46591"
         x="-45.874905"
         style="font-style:normal;font-weight:normal;font-size:116.21572876px;line-height:1.25;font-family:sans-serif;letter-spacing:0px;word-spacing:0px;fill:#d40000;fill-opacity:1;stroke:#ffffff;stroke-width:2.90539312;"
         xml:space="preserve"><tspan
           style="fill:#d40000;stroke-width:2.90539312;stroke:#ffffff;"
           y="177.46591"
           x="-45.874905"
           id="tspan866"
           sodipodi:role="line">j</tspan></text>
      <text
         id="text872"
         y="177.90929"
         x="218.54407"
         style="font-style:normal;font-weight:normal;font-size:116.21572876px;line-height:1.25;font-family:sans-serif;letter-spacing:0px;word-spacing:0px;fill:#d40000;fill-opacity:1;stroke:#ffffff;stroke-width:2.90539312;"
         xml:space="preserve"><tspan
           style="fill:#d40000;stroke-width:2.90539312;stroke:#ffffff;"
           y="177.90929"
           x="218.54407"
           id="tspan870"
           sodipodi:role="line">ensei</tspan></text>
    </g>
    <path
       style="opacity:1;fill:#000000;fill-opacity:1;stroke:none;stroke-width:15.16972733;stroke-miterlimit:4;stroke-dasharray:none;stroke-opacity:0.99447512"
       d="m -149.57743,-21.321192 c -8.32916,0 -15.03476,6.7056 -15.03473,15.0347402 V 80.644678 c 0,8.32916 6.70557,15.03474 15.03473,15.03474 h 29.41527 37.170835 15.03474 v -4.7656 h -83.375265 c -5.11794,0 -9.23819,-4.12022 -9.23819,-9.23819 0,-5.11794 4.12025,-9.23819 9.23819,-9.23819 h 83.375265 V -6.2864518 -21.321192 h -15.03474 -37.170835 z m 8.7824,18.8350302 h 51.931735 c 2.33293,0 4.2111,1.87817004 4.2111,4.21111 V 11.779118 c 0,2.33296 -1.87817,4.2111 -4.2111,4.2111 h -51.931735 c -2.33294,0 -4.21111,-1.87814 -4.21111,-4.2111 V 1.7249482 c 0,-2.33293996 1.87817,-4.21111 4.21111,-4.21111 z"
       id="rect899"
       inkscape:connector-curvature="0"
       inkscape:export-filename="C:\Users\Alec\Desktop\rect899.png"
       inkscape:export-xdpi="600"
       inkscape:export-ydpi="600" />
    <path
       style="opacity:1;fill:#000000;fill-opacity:1;stroke:none;stroke-width:15.2397747;stroke-miterlimit:4;stroke-dasharray:none;stroke-opacity:0.99447512"
       d="m 13.891021,-21.140001 c -2.312101,0 -4.624342,0.785585 -6.395992,2.356964 l -55.304634,49.053334 c -2.905209,2.57678 -3.426682,6.441585 -1.567862,9.482627 h 14.428575 v 47.76349 c 0,3.826102 3.080454,6.906556 6.906557,6.906556 h 22.6771669 c 3.8261025,0 6.9060403,-3.080454 6.9060403,-6.906556 V 39.752924 H 25.720791 v 47.632749 c 0,3.826102 3.080454,6.906556 6.906553,6.906556 h 22.67717 c 3.8261,0 6.906035,-3.080454 6.906035,-6.906556 V 39.752924 h 14.948959 c 1.85883,-3.041042 1.337336,-6.905847 -1.567868,-9.482627 L 20.287014,-18.783037 c -1.77165,-1.571379 -4.083883,-2.356964 -6.395993,-2.356964 z"
       id="rect966"
       inkscape:connector-curvature="0"
       inkscape:export-filename="C:\Users\Alec\Desktop\rect966.png"
       inkscape:export-xdpi="600"
       inkscape:export-ydpi="600" />
    <path
       style="fill:#000000;stroke:#000000;stroke-width:0.26458332px;stroke-linecap:butt;stroke-linejoin:miter;stroke-opacity:1"
       d="m 1147.5395,734.50685 c -1.6838,-1.83969 -3.9912,-4.14717 -5.8932,-5.30087 -1.9019,-1.1537 -3.5233,-1.1537 -5.7686,-0.5924 -2.2453,0.5613 -5.1758,1.68365 -7.7329,3.5546 -2.557,1.87095 -4.7395,4.48992 -6.2986,6.67269 -1.5592,2.18277 -2.4945,3.9287 -3.4301,5.92453 -0.9356,1.99582 -1.8708,4.2405 -3.0558,6.51692 -1.185,2.27642 -2.6191,4.5835 -4.5524,6.76636 -1.9334,2.18287 -4.3653,4.2406 -6.1427,5.51911 -1.7773,1.27851 -2.8997,1.77736 -3.8041,1.99571 -0.9044,0.21834 -1.5902,0.156 -1.7711,0.20593 -0.1809,0.0499 0.2431,0.26192 1.4589,0.57365 1.2158,0.31174 3.2744,0.74841 5.9871,1.372 2.7126,0.6236 6.0805,1.43439 10.2899,1.715 4.2094,0.28061 9.261,0.0312 13.4704,-1.06022 4.2095,-1.09136 7.5773,-3.02471 10.2276,-5.20737 2.6503,-2.18265 4.5837,-4.61503 6.205,-7.23412 1.6213,-2.61908 2.9311,-5.42576 3.767,-7.91593 0.836,-2.49016 1.222,-4.80627 1.2843,-6.24048 0.062,-1.43421 -0.1872,-2.05794 -0.8419,-3.05553 -0.6546,-0.9976 -1.715,-2.36989 -3.3988,-4.20958 z"
       id="path1122"
       inkscape:connector-curvature="0"
       inkscape:path-effect="#path-effect1124"
       inkscape:original-d="m 1148.1631,734.97458 c -2.3071,-2.3077 -4.6146,-4.61513 -6.9222,-6.9223 -1.4965,-2.6e-4 -3.1179,-2.6e-4 -4.6772,0 -2.9313,1.12247 -5.8619,2.24481 -8.7932,3.36759 -2.1827,2.61927 -4.3652,5.23822 -6.5481,7.85773 -0.9353,1.74609 -1.8706,3.49205 -2.8064,5.23849 -0.9353,2.2452 -1.8706,4.48987 -2.8063,6.73518 -1.4343,2.30751 -2.8684,4.61459 -4.303,6.92229 -2.4322,2.05798 -4.8641,4.11567 -7.2965,6.17392 -1.1224,0.49871 -2.2448,0.99756 -3.3676,1.49672 -0.6859,-0.0626 -1.3717,-0.12499 -2.058,-0.18709 0.3122,0.18688 0.7487,0.37391 1.1226,0.56126 2.0576,0.43614 4.1162,0.87281 6.1739,1.30961 3.3676,0.8104 6.7355,1.62118 10.1028,2.43216 5.0514,-0.24969 10.103,-0.49916 15.1542,-0.74835 3.3676,-1.93342 6.7354,-3.86675 10.1028,-5.79974 1.9333,-2.43219 3.8667,-4.86458 5.7997,-7.29647 1.3097,-2.80625 2.6195,-5.61293 3.9289,-8.41899 0.312,-2.18271 0.7486,-4.49038 1.1225,-6.73518 -0.2491,-0.62381 -0.4986,-1.24754 -0.7484,-1.8709 -1.0596,-1.37194 -2.12,-2.74423 -3.1805,-4.11593 z"
       transform="matrix(0.82490567,0,0,0.95710976,-795.00187,-641.13793)"
       inkscape:export-filename="C:\Users\Alec\Desktop\path1126.png"
       inkscape:export-xdpi="600"
       inkscape:export-ydpi="600" />
    <path
       style="fill:#000000;stroke:#000000;stroke-width:0.26458332px;stroke-linecap:butt;stroke-linejoin:miter;stroke-opacity:1"
       d="m 1146.7751,722.94804 c -0.5769,-1.67402 1.3871,-3.12028 2.8839,-4.6638 1.4967,-1.54352 2.5261,-3.18425 4.2572,-5.28332 1.7311,-2.09907 4.1629,-4.65558 10.461,-10.08068 6.2981,-5.4251 16.4644,-13.72027 27.6896,-22.60685 11.2251,-8.88657 23.5109,-18.366 31.3062,-24.13451 7.7953,-5.76852 11.1007,-7.82655 12.8155,-8.73078 1.7148,-0.90423 1.8395,-0.65477 1.6524,-0.0934 -0.187,0.56137 -0.6857,1.43407 -10.948,13.69262 -10.2622,12.25855 -30.2735,35.88559 -41.686,49.0442 -11.4124,13.1586 -14.2187,15.84017 -17.3058,18.14772 -3.0871,2.30756 -6.4543,4.24065 -8.357,5.18002 -1.9026,0.93937 -2.4628,0.86934 -3.2116,-0.12897 -0.7487,-0.99831 -1.746,-2.93065 -3.8039,-4.84822 -2.0579,-1.91757 -5.1766,-3.82 -5.7535,-5.49402 z"
       id="path1126"
       inkscape:connector-curvature="0"
       inkscape:path-effect="#path-effect1128"
       inkscape:original-d="m 1144.2343,722.72025 c 1.9639,-1.44629 3.9279,-2.89254 5.8919,-4.33874 1.0295,-1.64078 2.059,-3.28147 3.0883,-4.92214 2.4328,-2.55749 4.8646,-5.11402 7.2965,-7.67064 10.1643,-8.29365 20.3306,-16.58879 30.4955,-24.88279 12.2854,-9.47915 24.5712,-18.95859 36.8564,-28.43747 3.3054,-2.05819 6.6107,-4.11623 9.9157,-6.17394 0.125,0.24918 0.2497,0.49866 0.3742,0.74837 -0.4989,0.87318 -0.9976,1.74588 -1.4967,2.61924 -20.0254,23.64375 -40.0367,47.2708 -60.0555,70.90659 -2.8061,2.68139 -5.6124,5.36294 -8.419,8.04481 -3.3676,1.93318 -6.7349,3.86625 -10.1027,5.79975 -0.4364,-0.0626 -0.9976,-0.12499 -1.4968,-0.18709 -0.998,-1.93439 -1.9953,-3.86675 -2.9934,-5.79974 -3.1178,-1.90226 -6.2365,-3.8047 -9.3544,-5.70621 z"
       sodipodi:nodetypes="ccccccccccccccc"
       transform="matrix(0.82490567,0,0,0.95710976,-795.37605,-640.38958)"
       inkscape:export-filename="C:\Users\Alec\Desktop\path1126.png"
       inkscape:export-xdpi="600"
       inkscape:export-ydpi="600" />
    <g
       id="g1182"
       transform="matrix(0.7103418,0,0,0.89402244,113.47756,12.935666)">
      <g
         id="g1227"
         transform="matrix(0.54865721,0,0,0.54865721,188.85995,9.4600581)">
        <g
           id="g1259">
          <rect
             ry="5.8658185"
             y="-13.744993"
             x="283.80789"
             height="95.260178"
             width="66.454491"
             id="rect1130-3"
             style="opacity:1;fill:#ffffff;fill-opacity:1;stroke:#000000;stroke-width:10.49403477;stroke-miterlimit:4;stroke-dasharray:none;stroke-opacity:0.99447512"
             transform="matrix(2.5658516,0,0,2.0386867,-635.3887,-43.613972)"
             inkscape:export-filename="C:\Users\Alec\Desktop\rect1147-2-5.png"
             inkscape:export-xdpi="600"
             inkscape:export-ydpi="600" />
          <rect
             ry="11.963319"
             y="-48.414848"
             x="121.13253"
             height="194.28288"
             width="185.10474"
             id="rect1130-8"
             style="opacity:1;fill:#ffffff;fill-opacity:1;stroke:#ffffff;stroke-width:25.01212502;stroke-miterlimit:4;stroke-dasharray:none;stroke-opacity:0.99447512"
             inkscape:export-filename="C:\Users\Alec\Desktop\rect1147-2-5.png"
             inkscape:export-xdpi="600"
             inkscape:export-ydpi="600" />
          <rect
             ry="5.865818"
             y="-1.2114732"
             x="298.70645"
             height="95.260178"
             width="66.454491"
             id="rect1130"
             style="opacity:1;fill:#ffffff;fill-opacity:1;stroke:#000000;stroke-width:10.49403381;stroke-miterlimit:4;stroke-dasharray:none;stroke-opacity:0.99447512"
             transform="matrix(2.5658516,0,0,2.0386867,-635.3887,-43.613972)"
             inkscape:export-filename="C:\Users\Alec\Desktop\rect1147-2-5.png"
             inkscape:export-xdpi="600"
             inkscape:export-ydpi="600" />
          <g
             transform="matrix(1.2207766,0.6703639,-1.0618734,1.2207766,-146.07596,-306.44675)"
             id="g1202"
             style="">
            <rect
               ry="8.2127151"
               y="-9.7056341"
               x="386.54224"
               height="122.41675"
               width="42.598103"
               id="rect1147-7"
               style="opacity:1;fill:#ffffff;fill-opacity:1;stroke:none;stroke-width:16.11674309;stroke-miterlimit:4;stroke-dasharray:none;stroke-opacity:0.99447512"
               transform="matrix(0.99991889,-0.01273616,-0.02041922,0.99979151,0,0)"
               inkscape:export-filename="C:\Users\Alec\Desktop\rect1147-2-5.png"
               inkscape:export-xdpi="600"
               inkscape:export-ydpi="600" />
            <rect
               ry="7.2045245"
               y="-7.5803523"
               x="391.76367"
               height="107.3889"
               width="31.056719"
               id="rect1147"
               style="opacity:1;fill:#000000;fill-opacity:1;stroke:none;stroke-width:12.88899994;stroke-miterlimit:4;stroke-dasharray:none;stroke-opacity:0.99447512"
               inkscape:export-filename="C:\Users\Alec\Desktop\rect1147-2-5.png"
               inkscape:export-xdpi="600"
               inkscape:export-ydpi="600" />
            <path
               sodipodi:nodetypes="cccscccccccsc"
               inkscape:connector-curvature="0"
               id="rect966-9"
               d="m 392.05295,105.94418 c -0.4462,0.80488 -0.32075,1.82752 0.37659,2.50951 l 13.27494,12.98323 c 0.42528,0.41589 0.98029,0.6235 1.53529,0.6235 0.55499,0 1.11002,-0.20761 1.53527,-0.6235 l 13.27531,-12.98323 c 0.69735,-0.68199 0.82244,-1.70463 0.37625,-2.50951 h -3.34848 -0.11495 -8.75893 -5.80403 -7.17855 c -0.55175,0 -5.16871,0 -5.16871,0 z"
               style="opacity:1;fill:#000000;fill-opacity:1;stroke:none;stroke-width:3.84121943;stroke-miterlimit:4;stroke-dasharray:none;stroke-opacity:0.99447512"
               inkscape:export-filename="C:\Users\Alec\Desktop\rect1147-2-5.png"
               inkscape:export-xdpi="600"
               inkscape:export-ydpi="600" />
          </g>
          <path
             sodipodi:nodetypes="ccccccccccccc"
             inkscape:connector-curvature="0"
             id="rect1147-2"
             d="m 212.04462,-16.992687 c -0.92996,0.01943 -1.86368,0.405276 -2.46612,1.097853 L 191.10972,5.337314 175.455,-9.7173343 c -0.94081,-0.9047167 -2.65299,-1.1946097 -3.83907,-0.6498037 l -4.13422,1.8987513 c -1.1861,0.5448061 -1.3838,1.7119662 -0.44301,2.6166819 l 21.91707,21.0758098 c 0.94082,0.904714 2.65299,1.194607 3.83909,0.649804 l 25.40603,-27.034088 c 0.96389,-1.108123 0.70311,-2.569169 -0.58425,-3.27609 l -3.97484,-2.182606 c -0.48274,-0.265095 -1.03919,-0.38547 -1.59718,-0.373812 z"
             style="opacity:1;fill:#000000;fill-opacity:1;stroke:none;stroke-width:4.34989119;stroke-miterlimit:4;stroke-dasharray:none;stroke-opacity:0.99447512"
             inkscape:export-filename="C:\Users\Alec\Desktop\rect1147-2-5.png"
             inkscape:export-xdpi="600"
             inkscape:export-ydpi="600" />
          <path
             sodipodi:nodetypes="ccccccccccccc"
             inkscape:connector-curvature="0"
             id="rect1147-2-5"
             d="m 212.11439,29.250889 c -0.92996,0.01943 -1.86368,0.405276 -2.46612,1.097853 L 191.17949,51.58089 175.52477,36.526242 c -0.94081,-0.904717 -2.65299,-1.194609 -3.83907,-0.649804 l -4.13422,1.898752 c -1.1861,0.544806 -1.3838,1.711966 -0.44301,2.616682 l 21.91707,21.07581 c 0.94082,0.904714 2.65299,1.194606 3.83909,0.649803 l 25.40603,-27.034088 c 0.96389,-1.108123 0.70311,-2.569169 -0.58425,-3.27609 l -3.97484,-2.182606 c -0.48274,-0.265095 -1.03919,-0.38547 -1.59718,-0.373812 z"
             style="opacity:1;fill:#000000;fill-opacity:1;stroke:none;stroke-width:4.34989119;stroke-miterlimit:4;stroke-dasharray:none;stroke-opacity:0.99447512"
             inkscape:export-filename="C:\Users\Alec\Desktop\rect1147-2-5.png"
             inkscape:export-xdpi="600"
             inkscape:export-ydpi="600" />
        </g>
      </g>
    </g>
  </g>
</svg>
