<?xml version="1.0" encoding="UTF-8" standalone="no"?>
<svg
   xmlns:dc="http://purl.org/dc/elements/1.1/"
   xmlns:cc="http://creativecommons.org/ns#"
   xmlns:rdf="http://www.w3.org/1999/02/22-rdf-syntax-ns#"
   xmlns:svg="http://www.w3.org/2000/svg"
   xmlns="http://www.w3.org/2000/svg"
   id="svg8"
   version="1.1"
   viewBox="0 0 114.50502 118.27055"
   height="118.27055mm"
   width="114.50502mm">
  <defs
     id="defs2" />
  <metadata
     id="metadata5">
    <rdf:RDF>
      <cc:Work
         rdf:about="">
        <dc:format>image/svg+xml</dc:format>
        <dc:type
           rdf:resource="http://purl.org/dc/dcmitype/StillImage" />
        <dc:title></dc:title>
      </cc:Work>
    </rdf:RDF>
  </metadata>
  <g
     transform="translate(-32.884564,-33.080819)"
     id="layer1">
    <path
       style="fill:#000000;stroke-width:0.04233333"
       d="m 58.326299,151.31924 c -0.26814,-0.0144 -0.39411,-0.0338 -0.3175,-0.0489 0.11041,-0.0218 0.10283,-0.0259 -0.0581,-0.0314 -0.10179,-0.003 -0.38754,-0.0361 -0.635,-0.0724 -3.15148,-0.46281 -5.91208,-2.21873 -7.64982,-4.86576 -0.95888,-1.46064 -1.58373,-3.22695 -1.75104,-4.94977 -0.0632,-0.65123 -0.0632,-85.080236 0,-85.731466 0.13126,-1.35161 0.60681,-2.91759 1.25245,-4.12426 0.28026,-0.52379 0.84523,-1.3582 1.23253,-1.82034 0.46908,-0.55972 1.31624,-1.36731 1.85982,-1.77296 1.48346,-1.10703 3.06766,-1.76823 5.05062,-2.10798 0.42438,-0.0727 1.72083,-0.0767 28.6385,-0.0891 19.813921,-0.009 28.338701,5.4e-4 28.680831,0.0324 2.09095,0.19481 3.97017,0.92125 5.66925,2.19152 0.5642,0.42181 1.5951,1.43026 2.00134,1.95778 0.87874,1.14105 1.54982,2.44733 1.92294,3.74304 0.1991,0.69138 0.35831,1.57615 0.36795,2.04472 l 0.008,0.39027 -5.12233,7.16107 -5.12233,7.16107 -0.0212,-6.91634 c -0.0155,-5.08062 -0.0341,-6.94442 -0.0698,-7.02216 -0.0724,-0.15752 -0.27727,-0.33486 -0.44109,-0.38184 -0.0939,-0.0269 -9.79155,-0.0415 -27.602061,-0.0415 h -27.45734 l -0.18435,0.0975 c -0.12599,0.0666 -0.21519,0.15583 -0.28182,0.28183 l -0.0975,0.18434 v 41.89438 41.894366 l 0.0952,0.18889 c 0.0696,0.13799 0.14615,0.21455 0.28414,0.28413 l 0.18888,0.0953 h 27.48789 c 23.246671,0 27.508901,-0.009 27.624111,-0.0583 0.19316,-0.0827 0.36947,-0.28579 0.41377,-0.47674 0.0219,-0.0945 0.0384,-5.91613 0.0389,-13.79556 l 0.001,-13.63209 5.15408,-7.20331 5.15408,-7.203306 0.0125,21.025896 c 0.009,15.07876 -7.2e-4,21.18155 -0.0342,21.57623 -0.31171,3.66956 -2.40689,6.91482 -5.62976,8.72 -1.26507,0.70858 -2.87968,1.21242 -4.23333,1.32099 -0.23111,0.0185 -0.32197,0.0384 -0.254,0.0555 0.0582,0.0146 -0.17039,0.0396 -0.508,0.0555 -0.72942,0.0343 -55.023001,0.0234 -55.668331,-0.0112 z m -15.40934,-12.62091 c -1.99373,-0.19073 -3.95436,-0.96103 -5.62894,-2.21152 -0.55112,-0.41155 -1.6809,-1.54997 -2.1079,-2.12402 -1.12226,-1.50875 -1.83188,-3.21754 -2.10308,-5.06427 -0.0363,-0.24746 -0.0683,-0.53321 -0.0711,-0.635 -0.004,-0.1662 -0.008,-0.17212 -0.0337,-0.0581 -0.0173,0.0764 -0.0406,-0.13282 -0.0585,-0.52532 -0.0389,-0.85256 -0.0389,-83.398476 0,-84.251036 0.0179,-0.3925 0.0412,-0.60173 0.0585,-0.52531 0.0258,0.11405 0.0292,0.10814 0.0337,-0.0581 0.003,-0.10179 0.0347,-0.38754 0.0711,-0.635 0.2885,-1.96454 1.04797,-3.72326 2.29659,-5.31827 0.36813,-0.47026 1.46772,-1.5357 1.9765,-1.91512 1.50271,-1.12063 3.21644,-1.83261 5.06427,-2.10397 0.24746,-0.0363 0.53321,-0.0683 0.635,-0.0711 0.1662,-0.004 0.17212,-0.008 0.0581,-0.0337 -0.0764,-0.0173 0.13281,-0.0406 0.52531,-0.0585 0.85231,-0.0389 54.61206,-0.0389 55.46437,0 0.39249,0.0179 0.60173,0.0412 0.52531,0.0585 -0.11406,0.0258 -0.10814,0.0292 0.0581,0.0337 0.578341,0.0157 1.752901,0.25833 2.563921,0.52974 2.43153,0.81371 4.56804,2.51227 5.88953,4.68227 0.30801,0.50578 0.76967,1.45949 0.97044,2.00476 0.28918,0.78538 0.54564,1.94038 0.60059,2.70482 l 0.0266,0.37042 H 76.796649 43.861639 l -0.18434,0.0975 c -0.126,0.0666 -0.21519,0.15582 -0.28182,0.28182 l -0.0975,0.18434 v 41.88998 41.889976 l 0.0877,0.18111 c 0.11017,0.22759 0.30896,0.35262 0.61006,0.38369 l 0.2336,0.0241 v 5.15875 5.15874 l -0.47625,-0.006 c -0.26194,-0.003 -0.63817,-0.0213 -0.83608,-0.0402 z m 45.51796,-8.55263 c -0.2325,-0.1151 -0.41819,-0.34169 -0.49898,-0.60891 -0.0805,-0.26615 -1.00266,-12.07045 -0.98399,-12.59523 0.0109,-0.30511 0.0338,-0.40328 0.1481,-0.635 0.13009,-0.26364 0.39743,-0.58753 0.5542,-0.67143 0.061,-0.0326 1.26624,0.78302 6.44495,4.36178 3.50346,2.42107 6.722351,4.64519 7.153091,4.9425 0.53975,0.37254 0.78726,0.56816 0.79633,0.6294 0.0383,0.25882 -0.4516,0.91302 -0.8273,1.10468 -0.095,0.0485 -2.852681,0.86971 -6.128151,1.82497 -6.48435,1.8911 -6.27181,1.83852 -6.65825,1.64724 z M 102.9658,120.0758 c -0.29405,-0.0432 -0.67138,-0.15554 -0.97227,-0.28939 -0.26239,-0.11673 -8.339931,-5.67174 -8.728501,-6.00268 -0.45544,-0.38789 -0.89107,-1.12415 -1.07408,-1.81527 -0.11421,-0.43134 -0.15693,-1.34617 -0.0862,-1.84632 0.10295,-0.72815 0.36654,-1.50262 0.72299,-2.12429 0.19427,-0.33881 38.500841,-55.797036 39.016201,-56.485596 0.30455,-0.40691 1.02201,-1.08908 1.43442,-1.36388 1.39462,-0.92928 2.96354,-1.13825 4.20042,-0.55948 0.26706,0.12497 8.32245,5.66525 8.70017,5.98375 0.47305,0.39888 0.91777,1.15402 1.09176,1.85382 0.1294,0.52048 0.15731,1.38109 0.0632,1.94726 -0.12253,0.73682 -0.40857,1.52528 -0.7717,2.12714 -0.21347,0.35382 -38.55474,55.828686 -38.92173,56.314706 -0.36486,0.48322 -1.01553,1.11061 -1.45743,1.4053 -1.03325,0.68904 -2.21298,1.00254 -3.21718,0.85493 z M 76.169789,103.90111 c -0.11641,-0.0457 -0.27123,-0.13521 -0.34403,-0.19888 -0.11071,-0.0968 -8.35804,-10.056066 -8.7029,-10.509376 -0.25537,-0.33567 -0.24774,-0.74828 0.0185,-1.00182 0.23125,-0.2202 1.87963,-1.14888 2.09712,-1.1815 0.24373,-0.0366 0.58676,0.0408 0.80308,0.18106 0.11115,0.0721 1.23622,1.40235 3.25487,3.84857 2.20402,2.67085 3.10918,3.73857 3.16967,3.73891 0.0649,4.2e-4 0.92397,-1.21543 3.683,-5.21249 1.97908,-2.86713 3.66308,-5.27846 3.74222,-5.35852 0.20882,-0.21124 0.44092,-0.30308 0.76877,-0.30417 0.33005,-0.001 0.36938,0.0199 1.49704,0.80111 0.48717,0.33748 0.78423,0.57269 0.85131,0.67406 0.2087,0.31537 0.21272,0.8021 0.01,1.15611 -0.0526,0.0916 -2.30536,3.12646 -5.00623,6.74419 -5.37392,7.198196 -4.98116,6.712996 -5.4301,6.708056 -0.11013,-10e-4 -0.29548,-0.0396 -0.4119,-0.0853 z m 0.0632,-22.642706 c -0.20364,-0.0619 -0.36095,-0.16693 -0.55422,-0.36987 -0.32748,-0.34387 -8.61511,-10.39976 -8.68935,-10.54333 -0.0972,-0.18789 -0.0902,-0.54853 0.0138,-0.71916 0.0957,-0.15702 0.1357,-0.18351 1.19585,-0.79277 0.43576,-0.25043 0.87127,-0.47308 0.9678,-0.49477 0.1975,-0.0444 0.55894,0.007 0.74709,0.10657 0.0646,0.0341 0.17756,0.11583 0.25101,0.18155 0.0734,0.0657 1.48563,1.75835 3.13821,3.76138 1.65257,2.00304 3.03305,3.66544 3.06774,3.69422 0.051,0.0423 0.0793,0.038 0.14777,-0.0224 0.0466,-0.0411 1.6617,-2.36072 3.58913,-5.15472 1.92743,-2.794 3.56936,-5.16086 3.64874,-5.25968 0.30839,-0.38395 0.84323,-0.53933 1.24299,-0.36111 0.18366,0.0819 1.65762,1.08107 1.85292,1.25608 0.1877,0.1682 0.27818,0.40307 0.27997,0.72678 10e-4,0.25305 -0.0179,0.33569 -0.12534,0.53711 -0.0699,0.13093 -2.3368,3.19494 -5.03767,6.80892 -3.91904,5.244 -4.93817,6.58237 -5.04689,6.6278 -0.14589,0.061 -0.51561,0.0703 -0.68955,0.0174 z"
       id="path828" />
  </g>
</svg>
